<svg width="48" height="48" viewBox="0 0 48 48" xmlns="http://www.w3.org/2000/svg"><g id="wait0" fill="none" fill-rule="evenodd"><g id="Page-1" transform="translate(2.000000, 5.000000)" fill="#BCBCBC"><path d="M2.62 38V23.903H0V13.566c0-2.068 1.571-3.76 3.492-3.76H8.73c1.921 0 3.493 1.692 3.493 3.76v10.337h-2.62V38H2.62zM6.11 7.355a3.66 3.66 0 0 0 3.667-3.678A3.66 3.66 0 0 0 6.111 0a3.66 3.66 0 0 0-3.666 3.677A3.66 3.66 0 0 0 6.11 7.355z" id="P1"/><path d="M18.508 38V23.903H15.89V13.566c0-2.068 1.572-3.76 3.493-3.76h5.238c1.92 0 3.492 1.692 3.492 3.76v10.337h-2.62V38h-6.984zm3.493-30.645a3.66 3.66 0 0 0 3.666-3.678A3.66 3.66 0 0 0 22.001 0a3.66 3.66 0 0 0-3.667 3.677A3.66 3.66 0 0 0 22 7.355z" id="P2"/><path d="M34.398 38V23.903h-2.62V13.566c0-2.068 1.572-3.76 3.493-3.76h5.238c1.92 0 3.492 1.692 3.492 3.76v10.337h-2.619V38h-6.984zM37.89 7.355a3.66 3.66 0 0 0 3.667-3.678A3.66 3.66 0 0 0 37.89 0a3.66 3.66 0 0 0-3.667 3.677 3.66 3.66 0 0 0 3.667 3.678z" id="P3"/></g></g></svg>